Coordinates
version=1
nRows=24
nColumns=22
inDegrees=yes

Units are S.I. units (second, meters, Newtons, ...)
If the header above contains a line with 'inDegrees', this indicates whether rotational values are in degrees (yes) or radians (no).

endheader
time	pelvis_tilt	pelvis_list	pelvis_rotation	pelvis_tx	pelvis_ty	pelvis_tz	hip_flexion_r	hip_adduction_r	hip_rotation_r	knee_angle_r	ankle_angle_r	subtalar_angle_r	hip_flexion_l	hip_adduction_l	hip_rotation_l	knee_angle_l	ankle_angle_l	subtalar_angle_l	lumbar_extension	lumbar_bending	lumbar_rotation
      0.01000000	      0.74404160	      0.00812091	    -27.52490330	     -0.99051426	      0.90627275	     -0.31418229	     -4.68423340	      1.03437450	     -5.35541868	     -5.10233966	     17.78117284	     -7.37767132	      1.37610048	     -3.01957965	    -15.25236046	    -16.51956014	     15.96964837	     -0.94319080	     -3.87472138	     -2.56750408	      1.29010205
      0.02000000	      0.73595378	      0.00655576	    -27.52028839	     -0.99027690	      0.90625960	     -0.31411696	     -4.69262299	      1.03247351	     -5.35278429	     -5.10815081	     17.77838549	     -7.37816313	      1.36798577	     -3.02102364	    -15.25495307	    -16.52363269	     15.96777713	     -0.94368720	     -3.86282372	     -2.57823437	      1.28693454
      0.03000000	      0.71422853	      0.02626182	    -27.51528165	     -0.98999458	      0.90621462	     -0.31402511	     -4.69702063	      1.01757745	     -5.32813427	     -5.08227722	     17.77496899	     -7.37390738	      1.37308578	     -3.00744235	    -15.27032068	    -16.51102214	     15.96391532	     -0.95156490	     -3.82458027	     -2.60906696	      1.24681903
      0.04000000	      0.70119199	      0.02309504	    -27.51735982	     -0.98969315	      0.90619007	     -0.31392886	     -4.70704704	      1.01618592	     -5.32259502	     -5.08617091	     17.77596655	     -7.37239016	      1.36503831	     -3.01039135	    -15.26575661	    -16.51894419	     15.96394054	     -0.95320260	     -3.81027917	     -2.62142581	      1.24368849
      0.05000000	      0.66216341	      0.03786416	    -27.51590006	     -0.98936630	      0.90611878	     -0.31382501	     -4.71860167	      1.01369651	     -5.26116038	     -5.02566189	     17.79900483	     -7.34531947	      1.38367579	     -3.00497015	    -15.24620644	    -16.51184067	     15.98041452	     -0.97501991	     -3.76062562	     -2.64123924	      1.20959563
      0.06000000	      0.64552281	      0.03346176	    -27.52438935	     -0.98903913	      0.90608779	     -0.31372558	     -4.72833947	      1.01206022	     -5.25688092	     -5.02738772	     17.79869521	     -7.34206301	      1.37608755	     -3.00981741	    -15.24041487	    -16.52022546	     15.98214637	     -0.97802819	     -3.75098673	     -2.65256534	      1.20663936
      0.07000000	      0.60427672	      0.03409833	    -27.53330841	     -0.98868188	      0.90601984	     -0.31363840	     -4.75556617	      1.02040709	     -5.18687902	     -4.94705620	     17.81118163	     -7.29130931	      1.38619022	     -3.01514769	    -15.21595616	    -16.51296396	     16.02041855	     -1.01443957	     -3.71227336	     -2.65062405	      1.19447252
      0.08000000	      0.58618475	      0.02907405	    -27.54758524	     -0.98835828	      0.90598784	     -0.31355572	     -4.76434679	      1.01920702	     -5.18312187	     -4.94522133	     17.80868343	     -7.28500915	      1.37938232	     -3.01995428	    -15.21073498	    -16.52062124	     16.02425206	     -1.01933439	     -3.71171006	     -2.66159482	      1.19203947
      0.09000000	      0.57881974	      0.00294685	    -27.57668339	     -0.98800874	      0.90598102	     -0.31349117	     -4.83939805	      1.03151867	     -5.08115176	     -4.85752522	     17.74900892	     -7.11583154	      1.34272567	     -3.03540945	    -15.22038208	    -16.51903438	     16.11317831	     -1.14224327	     -3.73654240	     -2.64516440	      1.20283909
      0.10000000	      0.56272080	     -0.00415446	    -27.59049331	     -0.98766145	      0.90594515	     -0.31347079	     -4.86575254	      1.02875442	     -5.09132612	     -4.82537207	     17.77309575	     -7.08534495	      1.33404798	     -3.03685319	    -15.20934164	    -16.52781458	     16.11900316	     -1.15985666	     -3.74921566	     -2.64820744	      1.23669398
      0.11000000	      0.59024989	     -0.03476761	    -27.61758899	     -0.98730683	      0.90597922	     -0.31345442	     -4.95632224	      1.02544010	     -5.05900083	     -4.77360278	     17.76753344	     -6.92998346	      1.25275773	     -3.03583366	    -15.23203785	    -16.50512225	     16.18351148	     -1.24307353	     -3.82705319	     -2.64647832	      1.24602043
      0.12000000	      0.57980478	     -0.03921425	    -27.62765713	     -0.98699823	      0.90594600	     -0.31352652	     -4.97196205	      1.01402085	     -5.06472312	     -4.76117219	     17.77235859	     -6.91222309	      1.25646623	     -3.03020257	    -15.21770998	    -16.53223946	     16.18628585	     -1.25010821	     -3.86442200	     -2.65247378	      1.27622530
      0.13000000	      0.61000549	     -0.07298891	    -27.64018580	     -0.98666716	      0.90597405	     -0.31359083	     -5.05462352	      1.01149783	     -5.06676495	     -4.72576003	     17.79288732	     -6.79398434	      1.18995216	     -3.03395835	    -15.24334211	    -16.53367588	     16.25037966	     -1.29671120	     -3.96476499	     -2.65272386	      1.29574618
      0.14000000	      0.59867824	     -0.07562737	    -27.64754488	     -0.98636391	      0.90593923	     -0.31372048	     -5.06434982	      0.99739960	     -5.07758561	     -4.71577440	     17.78996623	     -6.77706284	      1.19701479	     -3.02461982	    -15.23083614	    -16.55728102	     16.25138888	     -1.30220633	     -4.01183224	     -2.65988931	      1.33138111
      0.15000000	      0.59455296	     -0.08243168	    -27.65068027	     -0.98606293	      0.90591465	     -0.31386461	     -5.08220162	      0.98417894	     -5.09070281	     -4.70702626	     17.79998548	     -6.74783111	      1.19760933	     -3.01765501	    -15.22855054	    -16.58307062	     16.26595422	     -1.31005024	     -4.07516119	     -2.67128790	      1.36772282
      0.16000000	      0.62625545	     -0.10709148	    -27.66850843	     -0.98572456	      0.90594729	     -0.31398146	     -5.14018948	      0.96749788	     -5.12335591	     -4.70796258	     17.83256403	     -6.60707947	      1.13240497	     -3.00892291	    -15.27075594	    -16.57695272	     16.30880358	     -1.34232726	     -4.18330724	     -2.68245152	      1.39609357
      0.17000000	      0.60853849	     -0.10489182	    -27.67221987	     -0.98540610	      0.90591353	     -0.31414620	     -5.13954198	      0.95141164	     -5.12915181	     -4.70016559	     17.82901049	     -6.58804618	      1.14860027	     -2.99678651	    -15.25681119	    -16.59896819	     16.30271461	     -1.34348360	     -4.23184482	     -2.69581818	      1.43188507
      0.18000000	      0.59321857	     -0.10141135	    -27.67829374	     -0.98506537	      0.90588424	     -0.31432038	     -5.13600719	      0.93005801	     -5.13745365	     -4.70365573	     17.83614101	     -6.56213103	      1.16109929	     -2.98175051	    -15.25619590	    -16.62011231	     16.30083780	     -1.34358470	     -4.28413674	     -2.70863784	      1.46225705
      0.19000000	      0.58060006	     -0.09490885	    -27.68820456	     -0.98471040	      0.90585995	     -0.31449844	     -5.12752215	      0.90290842	     -5.14545210	     -4.71909599	     17.85130638	     -6.52535126	      1.17165037	     -2.96143045	    -15.26224630	    -16.64298211	     16.30122292	     -1.34349587	     -4.33992818	     -2.72457565	      1.49160281
      0.20000000	      0.57151269	     -0.07528215	    -27.71531766	     -0.98432461	      0.90583353	     -0.31465017	     -5.09794594	      0.85696976	     -5.16683869	     -4.77174797	     17.90992745	     -6.37680885	      1.16363043	     -2.92319055	    -15.30069322	    -16.63277441	     16.30216579	     -1.35371053	     -4.38893238	     -2.75681663	      1.52377329
      0.21000000	      0.55276226	     -0.06933536	    -27.71532236	     -0.98390419	      0.90581012	     -0.31488369	     -5.09190987	      0.83090104	     -5.16245866	     -4.77720565	     17.90287235	     -6.35885652	      1.17975440	     -2.89890577	    -15.28646352	    -16.65930488	     16.30445472	     -1.35622604	     -4.44091989	     -2.75763140	      1.53785418
      0.22000000	      0.53813309	     -0.05325023	    -27.71454297	     -0.98347908	      0.90578674	     -0.31513052	     -5.07571310	      0.79162014	     -5.16356405	     -4.79936512	     17.91134914	     -6.32316007	      1.19063718	     -2.86087395	    -15.27651473	    -16.67080403	     16.31490524	     -1.36730056	     -4.49680745	     -2.77679038	      1.54332225
      0.23000000	      0.50772521	     -0.04997758	    -27.70627776	     -0.98296418	      0.90575247	     -0.31541320	     -5.06910338	      0.77093423	     -5.16422253	     -4.79647340	     17.91303913	     -6.31983385	      1.19814915	     -2.83800710	    -15.28079844	    -16.66582681	     16.31650154	     -1.36856008	     -4.53294731	     -2.75861676	      1.54745537
      0.24000000	      0.51859756	      0.01205733	    -27.69686794	     -0.98242486	      0.90572928	     -0.31575930	     -5.03558284	      0.66309302	     -5.19886658	     -4.86725624	     17.98166972	     -6.22612040	      1.17749443	     -2.71836956	    -15.22776725	    -16.62093013	     16.32727914	     -1.42517783	     -4.58505821	     -2.82599524	      1.55002724
